<?xml version="1.0" standalone="no"?>
<!DOCTYPE svg PUBLIC "-//W3C//DTD SVG 20010904//EN"
 "http://www.w3.org/TR/2001/REC-SVG-20010904/DTD/svg10.dtd">
<svg version="1.0" xmlns="http://www.w3.org/2000/svg"
 width="880.000000pt" height="880.000000pt" viewBox="0 0 880.000000 880.000000"
 preserveAspectRatio="xMidYMid meet">
<metadata>
Created by potrace 1.11, written by Peter Selinger 2001-2013
</metadata>
<g transform="translate(0.000000,880.000000) scale(0.100000,-0.100000)"
fill="#000000" stroke="none">
<path d="M4241 8367 c-40 -123 -52 -306 -37 -562 4 -66 9 -642 12 -1280 4
-1241 7 -1449 19 -1480 53 -135 116 -232 223 -340 75 -76 99 -97 257 -224 156
-124 222 -179 250 -206 32 -31 243 -190 405 -305 136 -97 382 -281 406 -304 6
-6 33 -29 59 -51 27 -22 72 -64 102 -93 l53 -53 -19 -50 c-66 -172 -171 -237
-316 -195 -69 21 -101 39 -255 150 -303 218 -514 351 -700 443 -318 156 -387
172 -504 114 -60 -30 -172 -128 -265 -234 -18 -22 -63 -73 -100 -115 -88 -102
-154 -169 -221 -222 -30 -25 -58 -49 -61 -54 -27 -37 -246 -247 -294 -281
-184 -132 -342 -99 -506 105 -175 217 -314 357 -604 605 -228 195 -274 237
-409 366 -61 58 -129 122 -151 141 -22 20 -66 60 -99 90 -32 29 -68 61 -80 71
-21 19 -148 132 -195 175 -14 13 -53 47 -85 75 -33 29 -71 63 -85 76 -14 13
-52 46 -83 74 -32 28 -58 56 -58 63 0 20 135 190 313 394 134 154 227 287 307
441 82 158 112 188 190 195 41 3 62 -1 104 -22 49 -24 176 -114 235 -167 66
-58 198 -146 236 -157 101 -28 171 -84 205 -163 27 -61 24 -159 -5 -221 -37
-78 -117 -136 -188 -136 -29 0 -90 29 -121 58 -15 15 -46 54 -68 87 -68 101
-100 128 -164 139 -118 22 -251 -144 -258 -322 -4 -95 35 -196 95 -247 23 -19
76 -49 164 -94 22 -11 108 -74 192 -140 187 -147 263 -191 341 -198 46 -4 66
-1 99 15 40 21 117 103 141 152 24 47 100 142 195 244 52 56 118 126 146 156
73 79 157 191 187 249 76 153 66 264 -41 432 -89 138 -227 258 -490 423 -77
49 -152 97 -167 107 -15 10 -29 19 -32 19 -3 0 -40 23 -83 52 -52 35 -145 119
-278 254 -110 111 -226 222 -257 247 -80 64 -174 107 -243 111 -93 6 -140 -10
-193 -63 -55 -55 -129 -136 -192 -210 -25 -29 -53 -63 -64 -75 -10 -11 -35
-41 -55 -66 -20 -25 -39 -47 -42 -50 -3 -3 -59 -72 -124 -155 -66 -82 -124
-155 -130 -162 -5 -6 -21 -26 -35 -44 -162 -215 -381 -454 -535 -584 -56 -48
-110 -101 -176 -175 -53 -59 -84 -136 -84 -210 0 -111 49 -182 222 -316 48
-38 104 -82 123 -99 56 -49 242 -237 287 -291 24 -28 53 -62 65 -76 13 -13 48
-53 78 -88 252 -292 350 -392 525 -535 27 -22 72 -60 100 -85 82 -73 475 -469
550 -554 39 -44 84 -94 100 -112 17 -17 39 -43 50 -56 136 -161 226 -261 311
-348 130 -132 164 -170 221 -245 109 -144 157 -308 132 -450 -4 -22 -10 -78
-14 -125 -4 -47 -9 -93 -10 -102 -2 -9 -6 -43 -10 -75 -7 -68 -14 -118 -21
-153 -2 -14 -6 -36 -9 -50 -3 -13 -7 -42 -10 -65 -4 -22 -10 -56 -15 -75 -5
-19 -11 -46 -14 -60 -10 -58 -39 -171 -66 -265 -40 -134 -41 -139 -28 -196 46
-199 357 -238 450 -56 14 29 22 65 24 117 3 91 65 323 159 595 12 35 46 147
100 328 10 31 19 57 20 57 2 0 27 -37 55 -82 44 -67 88 -154 150 -293 17 -36
51 -128 112 -295 63 -176 117 -315 151 -394 45 -103 176 -168 324 -162 141 6
232 65 238 156 3 48 -33 131 -76 176 -16 17 -31 39 -33 50 -9 46 -38 161 -47
184 -5 14 -11 36 -13 50 -3 14 -5 25 -6 25 -1 0 -3 7 -5 15 -2 8 -21 80 -43
160 -36 132 -52 199 -58 240 -1 8 -5 35 -9 60 -7 43 -8 70 -6 117 1 20 4 21
34 12 25 -8 238 -23 282 -20 57 4 244 2 295 -3 143 -14 234 -58 305 -148 17
-20 52 -109 61 -153 5 -22 9 -184 9 -360 0 -289 2 -326 19 -380 33 -100 72
-149 150 -182 38 -17 141 -16 175 1 35 19 85 75 111 126 25 48 57 182 65 270
3 36 8 83 10 105 2 22 6 76 10 120 3 44 8 87 10 95 2 8 7 35 10 60 3 25 8 53
11 62 3 9 7 25 9 36 8 43 49 124 72 142 55 43 102 -23 172 -242 21 -68 58
-182 81 -254 22 -72 56 -161 75 -198 19 -37 35 -73 35 -79 0 -64 55 -143 124
-180 58 -30 183 -30 242 1 97 50 137 105 136 188 0 49 -37 143 -62 159 -9 6
-24 53 -33 105 -9 49 -45 156 -97 285 -112 277 -126 332 -124 476 1 74 5 96
31 152 17 35 46 82 66 103 19 22 97 127 173 234 175 247 326 448 543 720 94
118 174 220 178 225 5 6 26 33 48 60 22 28 45 57 52 65 18 22 82 102 101 125
10 11 49 58 87 105 39 46 77 92 85 101 125 134 204 225 265 306 67 90 211 267
274 338 77 87 237 282 299 365 39 52 76 100 82 107 5 7 10 17 10 23 0 5 4 10
9 10 5 0 11 8 15 18 3 9 26 49 51 87 92 142 92 138 111 456 5 90 5 658 0 869
-8 274 -16 749 -21 1180 -2 217 -7 418 -9 445 -2 28 -7 93 -10 145 -6 96 -13
172 -21 245 -3 22 -8 67 -11 100 -4 33 -11 65 -16 72 -6 8 -35 11 -83 10 -64
-2 -84 -8 -161 -48 -49 -25 -165 -94 -258 -155 -93 -60 -172 -109 -175 -109
-3 -1 -25 -11 -47 -22 -23 -12 -89 -38 -146 -56 -290 -95 -587 -229 -911 -410
-150 -84 -231 -122 -338 -157 -109 -36 -133 -40 -252 -46 -164 -7 -294 32
-431 130 -52 37 -287 185 -351 220 -19 11 -70 43 -145 90 -19 13 -96 60 -170
106 -74 46 -146 90 -159 99 -13 9 -31 21 -40 26 -8 6 -40 26 -71 46 -30 19
-62 39 -70 42 -8 4 -55 34 -105 67 -149 99 -356 210 -457 246 -37 13 -37 13
-47 -19z m3604 -1771 c17 -4 64 -23 105 -43 127 -62 233 -186 286 -338 25 -71
26 -242 1 -310 -102 -278 -267 -403 -540 -410 -181 -5 -279 31 -397 145 -87
84 -138 174 -167 294 -3 11 -7 57 -10 102 -11 171 64 332 203 434 29 22 56 40
59 40 4 0 32 12 63 26 117 55 190 73 282 69 47 -1 99 -5 115 -9z m-2477 -45
c98 -30 157 -65 232 -141 192 -192 222 -478 73 -701 -66 -100 -134 -161 -234
-213 -49 -25 -89 -44 -89 -42 0 2 -26 -3 -57 -11 -52 -14 -193 -20 -248 -10
-173 29 -307 122 -392 273 -64 113 -81 168 -81 262 0 129 42 245 126 352 100
126 243 220 362 237 19 3 36 6 37 7 1 0 46 2 101 4 79 3 114 -1 170 -17z
m1935 -1713 c41 -109 38 -224 -9 -324 -27 -58 -53 -90 -104 -126 -59 -43 -103
-51 -290 -54 -96 -1 -184 -5 -195 -7 -11 -3 -49 -8 -85 -12 -36 -4 -73 -9 -84
-11 -10 -2 -53 -7 -95 -11 -307 -29 -499 30 -573 176 -79 156 -19 292 150 336
71 19 131 18 252 -7 51 -10 117 -22 145 -25 65 -9 271 -9 355 0 86 9 282 45
314 57 14 5 26 8 26 6 0 -1 35 7 78 20 42 13 82 23 88 23 6 1 18 -18 27 -41z"/>
<path d="M7620 6495 c-109 -35 -205 -111 -267 -210 -97 -156 -109 -357 -27
-485 45 -72 105 -117 219 -166 60 -26 82 -30 151 -30 70 1 89 6 149 35 84 42
167 123 213 209 18 34 30 62 26 62 -3 0 -2 6 4 13 8 10 14 30 29 97 5 24 4
112 -2 145 -18 95 -50 150 -129 222 -113 103 -253 145 -366 108z m208 -181
c154 -51 198 -195 113 -374 -47 -101 -174 -192 -263 -188 -96 3 -195 77 -227
169 -58 165 51 373 214 409 40 9 110 2 163 -16z"/>
<path d="M7643 6206 c-80 -42 -113 -85 -113 -146 0 -132 178 -257 276 -194 40
27 75 117 80 206 6 116 -133 193 -243 134z"/>
<path d="M5105 6429 c-98 -7 -140 -20 -194 -59 -98 -71 -159 -215 -155 -365 4
-158 50 -273 148 -370 75 -74 146 -103 246 -100 308 8 530 346 429 649 -63
186 -214 265 -474 245z m180 -130 c158 -74 230 -278 155 -435 -30 -61 -94
-112 -196 -155 -132 -56 -212 -46 -305 38 -39 35 -82 114 -94 170 -19 89 5
199 57 267 41 54 78 80 165 116 82 33 145 33 218 -1z"/>
<path d="M5112 6218 c-141 -43 -200 -175 -138 -310 73 -162 212 -191 332 -69
53 53 77 104 77 162 -1 81 -58 180 -123 214 -43 22 -83 23 -148 3z"/>
<path d="M7105 4763 c-27 -7 -70 -16 -95 -18 -25 -3 -52 -8 -60 -10 -67 -18
-447 -25 -690 -12 -221 12 -262 11 -271 -5 -16 -29 -4 -151 20 -197 45 -86
146 -147 281 -168 71 -11 206 -2 259 18 14 6 26 10 26 9 0 -1 25 5 55 13 51
15 116 25 200 32 236 19 347 62 379 147 15 40 -6 146 -37 184 -16 19 -20 19
-67 7z"/>
</g>
</svg>
